<svg width="14" height="15" viewBox="0 0 14 15" fill="none" xmlns="http://www.w3.org/2000/svg">
<g id="fi-sr-star" clip-path="url(#clip0_134_57)">
<path id="Vector" d="M13.226 7.75015L11.1494 9.37516L11.938 11.992C12.0655 12.3979 12.0671 12.837 11.9427 13.244C11.8182 13.6509 11.5743 14.0038 11.2474 14.2502C10.9261 14.5044 10.5367 14.6406 10.1372 14.6385C9.73776 14.6363 9.34966 14.4959 9.03071 14.2383L7.00013 12.637L4.96896 14.2364C4.64822 14.4892 4.26092 14.6265 3.86275 14.6286C3.46458 14.6306 3.07605 14.4974 2.75302 14.248C2.42999 13.9986 2.18909 13.6458 2.06496 13.2405C1.94084 12.8351 1.93988 12.398 2.06221 11.992L2.85088 9.37516L0.774214 7.75015C0.453883 7.49922 0.215756 7.14625 0.0938473 6.74165C-0.0280628 6.33705 -0.0275173 5.90152 0.0954027 5.49727C0.218322 5.09302 0.45733 4.74073 0.778286 4.49072C1.09924 4.24071 1.48573 4.10576 1.88255 4.10515H4.43347L5.20755 1.52015C5.32928 1.11325 5.56847 0.758288 5.89065 0.506445C6.21282 0.254602 6.60133 0.118896 7.00013 0.118896C7.39894 0.118896 7.78744 0.254602 8.10961 0.506445C8.43179 0.758288 8.67099 1.11325 8.79271 1.52015L9.5668 4.10515L12.1154 4.10515C12.5122 4.10576 12.8987 4.24071 13.2196 4.49072C13.5406 4.74073 13.7796 5.09302 13.9025 5.49727C14.0254 5.90152 14.026 6.33705 13.9041 6.74165C13.7822 7.14625 13.544 7.49922 13.2237 7.75015H13.226Z" fill="#6A4028"/>
</g>
<defs>
<clipPath id="clip0_134_57">
<rect width="14" height="15" fill="white" transform="matrix(-1 0 0 1 14 0)"/>
</clipPath>
</defs>
</svg>
